<?xml version="1.0" encoding="UTF-8" standalone="no"?>
<svg
   xmlns:dc="http://purl.org/dc/elements/1.1/"
   xmlns:cc="http://creativecommons.org/ns#"
   xmlns:rdf="http://www.w3.org/1999/02/22-rdf-syntax-ns#"
   xmlns:svg="http://www.w3.org/2000/svg"
   xmlns="http://www.w3.org/2000/svg"
   viewBox="0 0 529.33331 369.33334"
   height="369.33334"
   width="529.33331"
   xml:space="preserve"
   id="svg2"
   version="1.1"><metadata
     id="metadata8"><rdf:RDF><cc:Work
         rdf:about=""><dc:format>image/svg+xml</dc:format><dc:type
           rdf:resource="http://purl.org/dc/dcmitype/StillImage" /></cc:Work></rdf:RDF></metadata><defs
     id="defs6" /><g
     transform="matrix(1.3333333,0,0,-1.3333333,0,369.33333)"
     id="g10"><g
       transform="scale(0.1)"
       id="g12"><path
         id="path14"
         style="fill:#000000;fill-opacity:1;fill-rule:evenodd;stroke:none"
         d="m 2007.34,1038.4 -424.33,619.22 109.88,75.27 424.34,-618.59 -109.89,-75.9" /><path
         id="path16"
         style="fill:#b89778;fill-opacity:1;fill-rule:evenodd;stroke:none"
         d="M 1176.88,856.879 2811.72,703.32 c 0.82,-3.281 -12.93,-35.039 -41.25,-95.308 -28.32,-60.742 -74.65,-130.981 -139.02,-210.711 -64.34,-79.289 -150.36,-149.289 -258.01,-210 C 2265.35,126.988 2132.23,95.1992 1973.95,91.9883 1764.34,95.6211 1601.41,138.32 1485.27,220.082 1369.1,301.84 1288.2,401.172 1242.42,518.16 c -45.7,116.961 -67.58,229.891 -65.54,338.719" /><path
         id="path18"
         style="fill:none;stroke:#a17f66;stroke-width:12.14150047;stroke-linecap:round;stroke-linejoin:round;stroke-miterlimit:10;stroke-dasharray:none;stroke-opacity:1"
         d="m 1176.88,856.879 1639.1,-157.82 c -3.44,0.98 -17.19,-30.778 -48.56,-85 -25.27,-66.789 -71.6,-137.028 -133.55,-218.547 -66.76,-77.5 -152.78,-147.5 -254.96,-206.41 C 2265.35,126.988 2132.23,95.1992 1978.24,91.9883 1764.34,95.6211 1601.41,138.32 1480.43,225.551 1369.1,301.84 1288.2,401.172 1237.62,516.91 c -40.9,118.211 -62.78,231.141 -60.74,339.969" /><path
         id="path20"
         style="fill:#b89778;fill-opacity:1;fill-rule:evenodd;stroke:none"
         d="m 1176.29,686.91 1574.18,-170 -1574.18,170" /><path
         id="path22"
         style="fill:none;stroke:#a17f66;stroke-width:12.14150047;stroke-linecap:round;stroke-linejoin:round;stroke-miterlimit:10;stroke-dasharray:none;stroke-opacity:1"
         d="m 2755.27,516.91 -1578.39,170" /><path
         id="path24"
         style="fill:#33b88f;fill-opacity:1;fill-rule:evenodd;stroke:none"
         d="m 1654.06,1662.5 339.96,-514.22 60.71,8.48 -360.04,517.89 -40.63,-12.15" /><path
         id="path26"
         style="fill:#000000;fill-opacity:1;fill-rule:evenodd;stroke:none"
         d="m 2920.43,954.648 c 0,0 0,5.622 0,16.954 0,10.976 -0.82,27.148 -2.46,48.598 -1.17,43.71 -11.72,104.6 -31.52,182.73 -19.46,78.91 -58.95,165.94 -118.4,261.02 -60.71,95.89 -147.93,183.75 -261.68,263.47 -57.03,38.05 -120.16,70.43 -189.42,97.15 -69.18,26.33 -143.04,43.91 -221.6,52.81 -19.37,2 -38.83,3.67 -58.2,4.85 -10.16,0.43 -20.27,0.62 -30.35,0.62 l -15.2,0.63 h -15.15 c -9.73,-0.43 -19.65,-0.82 -29.81,-1.25 -10.47,-0.39 -20.62,-0.98 -30.35,-1.8 -20.63,-1.6 -41.06,-3.83 -61.29,-6.68 -40.86,-6.09 -81.56,-14.77 -122.03,-26.09 -19.81,-6.06 -39.88,-12.58 -60.08,-19.46 -9.73,-4.02 -19.65,-7.85 -29.8,-11.52 l -14.54,-6.06 -14.57,-6.67 c -161.48,-71.25 -294.21,-182.93 -398.24,-335.16 -25.08,-37.58 -47.34,-76.88 -66.79,-117.74 -19.38,-40.89 -35.79,-83.16 -49.18,-126.87 -12.93,-43.75 -22.86,-88.05 -29.73,-132.93 -6.45,-45.35 -9.92,-90.9 -10.27,-136.602 0.35,-45.738 3.82,-91.25 10.27,-136.597 6.48,-45.352 16.41,-89.891 29.73,-133.563 12.96,-43.316 29.18,-85.617 48.55,-126.867 19.45,-40.902 41.52,-80.16 66.25,-117.82 103.98,-152.571 236.76,-264.879 398.16,-336.91 l 14.65,-6.641 15.16,-5.5117 c 9.65,-4.0195 19.57,-7.8867 29.73,-11.5195 19.84,-7.2696 39.84,-13.75 60.11,-19.418 40.43,-11.75 81.14,-20.6602 122.03,-26.75 20.63,-3.211 41.06,-5.4297 61.33,-6.6016 10.08,-1.25 20.2,-2.039 30.35,-2.5 10.08,-0.3594 20.2,-0.5508 30.36,-0.5508 20.19,-0.4296 40.23,-0.2382 60.07,0.5508 20.2,1.25 40.08,2.8516 59.46,4.9219 78.55,9.25 152.38,27.3008 221.6,53.9805 69.61,26.3284 132.93,58.9494 190.04,97.7694 113.67,79.731 200.7,167.738 261.05,264.07 59.45,95.508 98.91,182.731 118.36,261.68 19.85,78.078 30.12,138.981 30.94,182.649 1.64,21.101 2.46,37.269 2.46,48.601 0,11.328 0,17.027 0,17.027 m 21.8,-0.628 c 0,0 -0.16,-5.469 -0.55,-16.399 0,-11.332 -0.82,-27.891 -2.46,-49.769 C 2938.4,842.969 2927.89,780.59 2907.66,700.859 2887.42,619.922 2846.95,530.66 2786.25,433.16 2723.95,335.23 2634.69,245.352 2518.52,163.59 2460.23,124.73 2395.7,91.8008 2324.88,64.6484 2253.63,37.5391 2177.93,19.3398 2097.85,10 2077.97,7.96875 2057.97,6.37109 2037.7,5.19922 c -20.2,-0.82031 -40.63,-1.05859 -61.25,-0.62891 -10.55,0 -20.9,0.19922 -30.98,0.62891 -10.16,0.35156 -20.47,1.17187 -30.98,2.42187 -21.05,1.16797 -41.87,3.39841 -62.5,6.67971 -41.72,6.0508 -83.2,14.918 -124.45,26.6797 -21.06,6.0898 -41.72,12.7695 -61.95,20.039 -10.12,3.6289 -20.24,7.461 -30.36,11.5196 l -15.19,6.0507 -15.16,6.6797 C 1440.16,158.121 1304.38,272.5 1197.5,428.281 c -25.08,38.481 -47.73,78.75 -67.93,120.778 -19.88,41.722 -36.45,84.812 -49.8,129.382 -13.75,44.879 -24.11,90.43 -30.98,136.559 -6.45,46.172 -9.92,92.699 -10.27,139.648 0.35,46.522 3.82,93.052 10.27,139.612 6.87,46.17 17.03,91.68 30.35,136.6 13.36,44.49 29.96,87.85 49.81,129.88 19.84,41.72 42.5,81.8 67.96,120.2 106.49,156.64 242.27,271.56 407.35,344.84 l 15.19,6.68 15.16,6.09 c 10.16,4.03 20.27,8.05 30.35,12.15 20.27,6.88 40.9,13.32 61.95,19.38 41.25,12.15 82.78,21.25 124.46,27.34 21.05,3.2 41.87,5.67 62.5,7.31 10.51,0.78 21.05,1.4 31.6,1.79 10.08,0.43 20.43,0.59 30.98,0.59 4.8,0.43 10.07,0.62 15.74,0.62 l 15.15,-0.62 c 10.16,0 20.24,-0.16 30.36,-0.59 20.27,-1.21 40.5,-2.85 60.7,-4.84 80.15,-9.73 155.86,-27.93 227.11,-54.65 70.82,-27.5 135.54,-60.9 194.26,-100.15 116.13,-81.76 205.15,-172.04 267.11,-270.79 61.09,-97.54 101.36,-186.75 120.78,-267.73 20.23,-79.73 30.97,-142.03 32.18,-186.95 1.21,-21.84 1.84,-38.441 1.84,-49.808 0.39,-11.332 0.55,-16.954 0.55,-16.954 v -0.628" /><path
         id="path28"
         style="fill:#9c7557;fill-opacity:1;fill-rule:evenodd;stroke:none"
         d="m 1225.47,632.27 c 2.81,-7.309 55.86,-37.231 159.06,-89.809 102.77,-52.66 238.75,-84.449 407.93,-95.352 168.79,-10.898 353.52,42.692 554.3,160.903 l 341.76,-159.653 c -2.43,-4.488 -39.07,-36.449 -109.89,-95.98 -70.82,-59.449 -160.27,-118.981 -268.32,-178.43 -108.08,-59.5 -219.33,-91.4881 -333.86,-95.8982 -115,6.8711 -229.69,54.8012 -344.26,143.8282 -114.1,88.633 -209.61,177.461 -286.57,266.48 -76.87,89.063 -116.95,137.032 -120.15,143.911" /><path
         id="path30"
         style="fill:#4a4a4c;fill-opacity:1;fill-rule:evenodd;stroke:none"
         d="m 1879.3,234.648 56.44,-45.546 248.91,-62.5 206.4,100.16 69.81,95.898 -381.21,45.539 -200.35,-133.551" /><path
         id="path32"
         style="fill:#000000;fill-opacity:1;fill-rule:evenodd;stroke:none"
         d="m 2758.32,942.5 c -0.43,0 -0.62,4.648 -0.62,13.949 0,8.903 -0.79,22.262 -2.43,40.071 -1.21,35.98 -10.35,85.98 -27.3,149.96 -16.6,65.12 -49.81,136.61 -99.53,214.26 -50.63,78.13 -122.66,149.57 -216.14,214.3 -46.95,30.78 -98.75,57.11 -155.42,78.91 -56.65,21.05 -116.96,35.43 -180.9,43.12 -15.36,1.6 -30.78,2.85 -46.14,3.67 -8.9,0.39 -18.04,0.59 -27.34,0.59 l -13.36,0.62 h -10.27 c -8.13,-0.43 -16.45,-0.62 -24.92,-0.62 -8.13,-0.43 -16.41,-1.02 -24.89,-1.84 -16.6,-1.17 -33.2,-2.81 -49.76,-4.84 -33.64,-4.85 -66.76,-11.95 -99.61,-21.25 -16.57,-4.85 -33.13,-10.08 -49.73,-15.78 l -24.3,-9.1 c -8.12,-3.25 -16.21,-6.68 -24.29,-10.32 -131.92,-57.89 -241.21,-148.94 -327.82,-273.16 -21.05,-30.78 -39.64,-62.93 -55.85,-96.56 -16.18,-33.6 -29.93,-68.17 -41.25,-103.79 -10.98,-36.06 -19.46,-72.66 -25.55,-109.89 -2.81,-18.63 -5,-36.83 -6.68,-54.64 l -1.17,-13.988 c -0.43,-4.41 -0.63,-9.293 -0.63,-14.57 l -1.25,-30.981 0.63,-26.672 c 0,-9.301 0.43,-18.597 1.25,-27.929 1.17,-19.032 3.04,-37.821 5.43,-56.45 5.27,-37.66 13.16,-74.449 23.67,-110.511 10.97,-36.438 24.1,-71.598 39.45,-105.618 15.82,-34.382 34.02,-67.152 54.65,-98.32 85.43,-127.461 195.31,-221.41 329.69,-281.723 7.65,-4.019 15.74,-7.66 24.26,-10.898 l 24.84,-9.73 c 16.64,-5.661 33.24,-11.09 49.8,-16.36 34.03,-9.73 68.05,-17.23 102,-22.461 17.38,-2.429 34.18,-4.301 50.43,-5.469 7.65,-0.82 15.97,-1.601 24.88,-2.429 8.87,0 17.97,-0.231 27.3,-0.621 h 24.3 c 8.48,0.39 16.8,0.621 24.84,0.621 16.61,1.179 33.01,2.621 49.18,4.219 65.59,7.699 127.31,22.66 185.16,44.929 57.89,22.262 110.51,49.801 157.85,82.571 94.3,67.191 166.13,141.062 215.51,221.57 48.55,79.332 80.55,151.75 95.94,217.379 4.41,16.172 8.08,31.519 10.89,46.09 2.43,14.179 4.69,27.742 6.72,40.711 1.61,12.531 3.01,24.25 4.22,35.152 1.21,10.547 2.03,20.078 2.46,28.558 0.39,4.059 0.55,7.891 0.55,11.52 0.47,4.102 0.63,7.93 0.63,11.52 0,7.742 0,14.031 0,18.832 0.42,10.16 0.62,15.199 0.62,15.199 V 942.5 m 139.02,-1.879 c 0.43,0 0.43,-5 0,-15.152 -0.39,-4.848 -0.62,-10.899 -0.62,-18.199 -0.39,-3.598 -0.59,-7.7 -0.59,-12.149 -0.43,-4.851 -0.78,-10.121 -1.21,-15.742 -0.82,-10.551 -2.03,-22.5 -3.67,-35.859 -1.6,-12.54 -3.4,-26.29 -5.43,-41.25 -2.85,-15 -6.09,-30.981 -9.73,-47.969 -3.67,-17.031 -8.08,-34.813 -13.32,-53.442 -19.88,-76.879 -58.9,-161.25 -117.22,-253.129 -59.89,-92.691 -145.08,-177.3 -255.59,-253.781 -112.5,-76.058 -245.23,-124.2185 -398.2,-144.4607 -19.03,-2.0664 -38.09,-3.668 -57.11,-4.8399 -9.65,0 -19.38,-0.2382 -29.1,-0.6289 h -29.73 c -8.94,0.3907 -17.85,0.6289 -26.72,0.6289 -9.72,0.3907 -19.84,0.9727 -30.35,1.8008 -20.23,1.6016 -40.08,3.8203 -59.53,6.6719 -39.65,5.2773 -79.1,13.5586 -118.36,24.9297 -19.41,5.2305 -38.87,11.3281 -58.28,18.1992 -9.69,4.02 -19.22,7.852 -28.52,11.52 -9.72,3.21 -19.45,7.07 -29.18,11.531 -76.44,33.59 -147.69,77.687 -213.63,132.301 -65.98,55.078 -123.83,118.828 -173.63,191.25 -24.3,36.41 -46.17,74.488 -65.55,114.136 -19.02,39.653 -35.27,80.742 -48.59,123.242 -12.93,42.11 -22.89,85.161 -29.77,129.34 -3.24,21.801 -5.86,43.871 -7.89,66.129 -0.78,10.942 -1.41,22.071 -1.8,33.403 l -1.21,35.199 0.59,30.969 c 0,4.851 0.19,10.082 0.62,15.781 l 0.59,16.999 c 1.64,23.08 3.83,45.5 6.68,67.38 6.48,44.1 15.98,87.62 28.55,130.55 12.5,42.89 28.13,84.33 46.72,124.41 18.64,40.47 39.89,79.14 63.71,115.98 100.82,150.54 230.51,261.25 389.18,332.03 9.3,4.45 19.03,8.55 29.14,12.15 9.69,4.1 19.42,7.93 29.14,11.56 19.46,7.27 39.03,13.75 58.91,19.41 40,11.76 80.08,20.63 120.16,26.72 19.84,2.81 39.92,5.04 60.11,6.68 9.73,1.21 19.61,2.03 29.73,2.42 10.16,0.43 20.08,0.59 29.81,0.59 l 7.22,0.62 h 9.73 l 13.4,-0.62 c 8.86,0 17.77,-0.16 26.68,-0.59 20.62,-0.82 40.66,-2.42 60.07,-4.84 77.31,-8.91 150.16,-26.52 218.56,-52.85 68.4,-25.9 130.55,-58.05 186.41,-96.53 111.25,-78.9 196.05,-165.89 254.33,-261.01 57.5,-93.91 95.55,-179.73 114.14,-257.38 18.63,-76.53 28.13,-135.98 28.56,-178.48 1.17,-20.629 1.79,-36.449 1.79,-47.379 0,-10.902 0,-16.371 0,-16.371 v -1.879" /><path
         id="path34"
         style="fill:#4a4a4c;fill-opacity:1;fill-rule:evenodd;stroke:none"
         d="m 2005.55,269.262 c -1.6,-2.461 -21.06,-11.961 -58.28,-28.563 -36.8,-16.949 -82.15,-26.679 -135.98,-29.097 -101.95,7.66 -151.56,14.918 -148.75,21.796 -0.43,1.25 -9.1,7.934 -26.06,20.082 -17.42,12.141 -41.13,23.04 -71.05,32.77 -16.17,9.73 -7.5,27.5 26.05,53.398 33.64,25.942 53.68,40.512 60.16,43.711 l 353.91,-114.097" /><path
         id="path36"
         style="fill:#cccccc;fill-opacity:1;fill-rule:evenodd;stroke:none"
         d="m 1803.98,498.09 c -2.42,1.64 -17.77,6.711 -46.09,15.191 -28.75,8.481 -55.47,10.699 -80.16,6.68 -13.75,38.48 -34.02,67.769 -60.7,88.051 -26.72,20.617 -56.25,24.879 -88.67,12.726 -35.98,61.883 -88.01,91.25 -155.98,88.051 -68,-2.848 -115.35,-50.82 -142.11,-143.91 -18.98,16.211 -41.87,15.59 -68.55,-1.789 -26.72,-17.43 -42.31,-47.781 -46.76,-91.059 4.06,-36.441 20.24,-60.742 48.56,-72.851 28.36,-12.149 44.53,-17.848 48.55,-17.032 -1.17,-2.808 8.32,-13.949 28.55,-33.398 20.28,-19.41 57.9,-30.551 112.93,-33.398 23.48,-31.172 54.46,-43.473 92.86,-36.993 42.93,0 87.65,7.262 134.18,21.84 30.78,-42.898 80.35,-64.929 148.75,-66.179 68.39,-1.598 116.95,6.878 145.7,25.511 74.45,-2.851 118.79,16.598 132.93,58.278 14.18,41.293 19.45,65.351 15.78,72.273 L 1803.98,498.09" /><path
         id="path38"
         style="fill:#7a7a7a;fill-opacity:1;fill-rule:evenodd;stroke:none"
         d="m 1677.73,486.559 c -13.75,38.48 -34.02,67.781 -60.7,88.05 -26.72,20.621 -56.25,24.879 -88.67,12.731 -35.98,61.922 -88.01,91.25 -155.98,88.051 -68,-2.852 -115.35,-50.821 -142.11,-143.911 -17.38,15 -38.63,15.399 -63.71,1.25 -25.11,-14.179 -41.68,-39.878 -49.76,-77.14 9.72,-29.539 27.15,-49.18 52.22,-58.828 25.47,-10.16 39.65,-14.813 42.5,-14.032 -0.82,-2.808 8.87,-14.101 29.1,-33.98 20.28,-19.41 57.9,-30.551 112.93,-33.398 12.54,-19.372 27.7,-30.743 45.55,-33.942 14.96,-2.461 30.7,-3.48 47.31,-3.051 42.93,0 87.65,7.461 134.18,22.422 30.78,-42.851 80.35,-65.16 148.75,-66.761 68.39,-1.598 116.95,6.878 145.7,25.511 53.4,-4.062 90.43,5.469 111.05,28.52 20.71,23.078 32.39,46.328 35.24,69.801 l -217.35,106.839 c -2.42,1.641 -17.96,6.719 -46.71,15.188 -28.36,8.48 -54.85,10.711 -79.54,6.68" /><path
         id="path40"
         style="fill:#cccccc;fill-opacity:1;fill-rule:evenodd;stroke:none"
         d="m 1672.27,407.66 c 61.91,7.692 104.02,-15.39 126.25,-69.18 -0.36,3.629 -0.98,7.219 -1.8,10.899 -19.02,61.133 -61.95,87.812 -128.71,80.152 -64.38,-19.449 -93.28,-60.902 -86.8,-124.449 0.82,-3.672 1.8,-7.312 3.05,-10.98 -0.82,58.277 28.47,96.128 88.01,113.558" /><path
         id="path42"
         style="fill:#9c7f2e;fill-opacity:1;fill-rule:evenodd;stroke:none"
         d="m 2987.23,406.41 c -3.28,-1.609 -28.56,-3.012 -75.9,-4.219 -47.78,-0.781 -98.36,10.539 -151.76,34.02 -33.63,19.809 -61.33,55 -83.2,105.629 -22.23,50.148 -38.67,97.73 -49.18,142.648 -10.9,45.352 -16.37,69.383 -16.37,72.231 L 2987.23,406.41" /><path
         id="path44"
         style="fill:#bdb030;fill-opacity:1;fill-rule:evenodd;stroke:none"
         d="m 1804.61,815 84.96,-525.121 h 122.03 l -53.4,212.5 L 2095.98,285 c 6.52,-0.391 60.9,2.031 163.32,7.301 102.38,5.281 214.49,15.629 336.36,30.98 122.19,15.348 215.67,37.848 280.43,67.379 -18.24,26.289 -48.39,68.172 -90.47,125.629 -41.67,57.5 -80.5,111.133 -116.56,160.902 -36.44,49.797 -55.82,76.289 -58.24,79.528 L 2987.23,407.031 3416.99,587.34 2732.81,958.281 2345.51,1059.02 1804.61,815" /><path
         id="path46"
         style="fill:#000000;fill-opacity:1;fill-rule:evenodd;stroke:none"
         d="m 1769.41,834.41 566.37,246.49 7.93,3.63 7.85,-2.42 386.14,-104.411 2.42,-0.629 2.42,-1.172 679.92,-378.828 21.84,-11.558 -23.01,-9.692 -424.41,-191.84 -13.95,-6.05 -12.15,10.902 -364.22,363.047 9.1,8.512 280.47,-355.782 17.62,-23.05 -26.72,-12.727 -24.26,-10.352 c -8.12,-3.679 -16.44,-6.679 -24.92,-9.101 -16.21,-5.668 -32.38,-10.547 -48.55,-14.578 -16.6,-4.449 -33.01,-8.469 -49.18,-12.141 l -49.81,-9.109 c -16.17,-2.852 -32.58,-5.621 -49.14,-8.469 -16.21,-2.422 -32.58,-4.652 -49.18,-6.684 -16.6,-2.418 -33.01,-4.687 -49.18,-6.718 l -49.8,-5.43 c -32.78,-3.238 -65.74,-6.289 -98.95,-9.102 -32.77,-2.418 -65.78,-4.847 -98.9,-7.347 -65.63,-4.02 -131.57,-7.219 -197.93,-9.641 h -13.99 l -7.26,11.52 -137.82,217.3 43.72,18.829 53.39,-211.829 9.73,-26.179 -33.4,-4.18 -122.03,-14.57 -33.36,0.551 -4.84,32.23 -81.96,550.578 m 70.98,-38.238 87.46,-500.192 -38.28,32.77 122.03,-14.57 -23.63,-30.348 -52.85,212.457 -36.45,145.699 80.2,-126.867 137.73,-217.351 -20.62,10.941 c 65.19,2.418 130.54,5.668 196.13,9.687 32.77,2.032 65.55,4.454 98.32,7.301 32.38,2.852 64.96,5.86 97.73,9.102 l 48.6,5.469 c 16.17,1.609 32.38,3.64 48.55,6.062 16.17,2.027 32.39,4.258 48.56,6.68 16.17,2.847 32.15,5.468 47.97,7.886 l 47.93,9.723 c 15.78,3.211 31.4,6.879 46.75,10.938 15.82,4.031 30.98,8.523 45.55,13.32 7.7,2.422 14.96,5.281 21.88,8.519 l 20.62,9.102 -8.52,-35.82 -250.11,376.41 9.1,7.89 388.51,-336.371 -25.43,4.301 434.03,168.75 -1.21,-21.25 -687.82,364.211 4.85,-1.793 -388.52,96.522 16.41,1.25 -515.47,-240.428" /><path
         id="path48"
         style="fill:#9c7f2e;fill-opacity:1;fill-rule:evenodd;stroke:none"
         d="m 1921.17,878.75 c 1.6,-6.48 21.25,-53.629 58.87,-141.48 37.23,-87.391 82.38,-176.411 135.39,-267.11 52.62,-90.629 102.77,-143.68 150.55,-159.031 -112.5,-21.867 -169.18,-30.539 -170,-26.129 l -137.78,217.379 52.82,-212.5 -135.98,-19.449 -54.65,491.761 100.78,116.559" /><path
         id="path50"
         style="fill:#33b88f;fill-opacity:1;fill-rule:evenodd;stroke:none"
         d="m 1773.05,709.379 -63.71,307.141 100.7,122.03 562.19,63.75 440.11,-262.222 -869.92,-98.359 -169.37,-132.34" /><path
         id="path52"
         style="fill:#218c66;fill-opacity:1;fill-rule:evenodd;stroke:none"
         d="m 1942.42,841.09 -126.87,284.73 -106.21,-109.84 63.71,-307.191 169.37,132.301" /><path
         id="path54"
         style="fill:#000000;fill-opacity:1;fill-rule:evenodd;stroke:none"
         d="m 1728.71,1010.47 80.78,83.79 108.63,-243.44 -129.88,-98.359 -37.03,151.211 -22.5,106.798 m 1050.86,-63.751 -827.42,-81.949 -114.77,256.21 530.63,63.12 411.56,-237.381 m 62.5,-13.949 -24.84,15.781 -436.53,268.329 -4.84,3 -6.06,-0.54 -562.18,-60.16 -9.1,-1.17 -4.85,-6.06 -72.81,-97.77 -31.6,-32.15 26.13,-125.659 39.45,-235 196.68,158.469 861.45,109.262 29.1,3.668" /><path
         id="path56"
         style="fill:#000000;fill-opacity:1;fill-rule:evenodd;stroke:none"
         d="m 2282.38,277.148 c 0.39,0.391 0,0.582 -1.25,0.582 -0.78,0.391 -2.18,1.02 -4.18,1.801 -4.1,1.25 -8.94,3.481 -14.65,6.719 -6.05,2.809 -12.69,6.871 -20,12.148 -7.69,4.801 -15.58,10.704 -23.67,17.582 -8.08,6.872 -16.6,14.801 -25.51,23.668 -8.04,8.551 -16.36,17.813 -24.92,27.934 -4.02,5.27 -8.28,10.508 -12.69,15.777 -4.06,5.27 -8.09,10.743 -12.15,16.442 -7.74,10.898 -15.39,22.23 -23.09,33.949 -7.26,11.762 -14.14,23.711 -20.62,35.859 -6.88,11.68 -13.13,23.243 -18.83,34.571 -5.66,11.761 -10.9,22.851 -15.82,33.359 -4.8,10.981 -9.26,21.09 -13.32,30.352 -4.45,9.339 -8.09,18.05 -10.94,26.168 -2.81,7.66 -5.47,14.339 -7.89,20 -4.45,11.332 -6.68,17.23 -6.68,17.582 l 2.42,0.629 c 0,-0.43 2.66,-6.059 7.93,-16.961 2.43,-5.27 5.43,-11.789 9.1,-19.45 3.68,-7.308 7.86,-15.39 12.78,-24.3 4.8,-9.289 10.08,-19.02 15.74,-29.098 5.66,-10.16 11.76,-20.699 18.2,-31.602 6.49,-10.898 13.56,-21.879 21.25,-32.769 7.31,-11.328 15,-22.5 23.09,-33.399 7.7,-10.941 15.98,-21.25 24.92,-30.98 4.02,-5.27 8.28,-10.313 12.7,-15.16 4.06,-4.449 8.28,-8.903 12.77,-13.391 8.91,-9.262 17.58,-17.578 26.13,-24.851 8.48,-7.297 16.53,-13.789 24.26,-19.45 8.09,-6.058 15.59,-10.898 22.42,-14.527 6.53,-3.672 12.35,-6.531 17.62,-8.523 4.88,-2.028 8.28,-3.43 10.35,-4.258 1.21,-0.43 2.03,-0.621 2.42,-0.621 0.78,0 1.21,0 1.21,0 l -9.1,-35.782" /><path
         id="path58"
         style="fill:#000000;fill-opacity:1;fill-rule:evenodd;stroke:none"
         d="m 2441.41,303.199 c 0,0 -0.55,-0.539 -1.8,-1.789 -0.82,-0.789 -2.03,-1.801 -3.67,-3.012 -3.21,-3.238 -8.28,-6.097 -15.16,-8.519 -6.87,-2.027 -14.76,-2.649 -23.67,-1.828 -8.13,0.82 -16.8,3.469 -26.09,7.929 -8.91,4.801 -16.84,10.5 -23.72,16.95 -7.26,6.48 -14.37,13.55 -21.25,21.25 -14.14,14.57 -27.89,30.351 -41.25,47.379 -28.32,34.773 -51.6,66.371 -69.8,94.652 -18.24,28.398 -27.77,43.32 -28.55,45 l 1.83,1.168 c 0.82,-1.598 11.72,-15.539 32.77,-41.867 21.06,-25.903 46.96,-54.653 77.7,-86.25 15,-15.352 29.96,-29.532 44.96,-42.461 7.27,-6.102 14.38,-11.719 21.25,-17 7.27,-5.27 13.52,-9.102 18.79,-11.52 6.05,-1.601 11.33,-2.422 15.78,-2.422 4.45,0 7.5,0.551 9.1,1.801 2.03,1.25 3.25,2.219 3.67,3.039 0.4,0 0.59,0 0.59,0 -0.39,0 -0.59,0 -0.59,0 l 29.11,-22.5" /><path
         id="path60"
         style="fill:#7a7a7a;fill-opacity:1;fill-rule:evenodd;stroke:none"
         d="m 1440.98,873.32 c -1.64,-15.82 -9.93,-24.531 -24.93,-26.172 -15.35,1.641 -23.67,10.352 -24.88,26.172 1.21,15.7 9.53,24.45 24.88,26.059 15,-1.609 23.29,-10.359 24.93,-26.059" /><path
         id="path62"
         style="fill:#7a7a7a;fill-opacity:1;fill-rule:evenodd;stroke:none"
         d="m 1430.62,768.871 c -1.17,-13.75 -8.47,-21.449 -21.79,-23.051 -13.4,1.602 -20.71,9.301 -21.88,23.051 1.17,14.18 8.48,21.867 21.88,23.039 13.32,-1.172 20.62,-8.859 21.79,-23.039" /><path
         id="path64"
         style="fill:#7a7a7a;fill-opacity:1;fill-rule:evenodd;stroke:none"
         d="m 1575.16,735.469 c -2.07,-20.629 -12.78,-31.949 -32.23,-33.989 -19.02,2.04 -29.53,13.36 -31.52,33.989 1.6,20.269 12.14,31.371 31.52,33.402 19.45,-2.031 30.16,-13.133 32.23,-33.402" /><path
         id="path66"
         style="fill:#7a7a7a;fill-opacity:1;fill-rule:evenodd;stroke:none"
         d="m 1325.62,740.941 c -1.24,-13.75 -8.47,-21.453 -21.87,-23.05 -13.32,1.597 -20.63,9.3 -21.87,23.05 1.24,14.18 8.55,21.829 21.87,23.079 13.4,-1.25 20.63,-8.899 21.87,-23.079" /><path
         id="path68"
         style="fill:#7a7a7a;fill-opacity:1;fill-rule:evenodd;stroke:none"
         d="m 1365.7,892.699 c -0.82,-8.48 -5.47,-13.129 -13.98,-13.949 -8.09,0.82 -12.54,5.469 -13.32,13.949 0.78,8.903 5.23,13.75 13.32,14.571 8.51,-0.821 13.16,-5.668 13.98,-14.571" /><path
         id="path70"
         style="fill:#cccccc;fill-opacity:1;fill-rule:evenodd;stroke:none"
         d="m 1415.43,899.379 c -8.48,-0.43 -15.16,-4.258 -20,-11.527 4.45,3.668 9.53,5.668 15.19,6.097 14.97,-1.648 23.29,-10.359 24.89,-26.179 -0.43,-5.622 -2.03,-10.7 -4.89,-15.149 6.53,5.27 9.73,12.149 9.73,20.699 -1.17,15.7 -9.49,24.45 -24.92,26.059" /><path
         id="path72"
         style="fill:#cccccc;fill-opacity:1;fill-rule:evenodd;stroke:none"
         d="m 1408.83,791.91 c -8.13,-0.39 -14.18,-3.82 -18.24,-10.269 3.59,2.808 7.89,4.449 12.73,4.808 13.36,-1.609 20.66,-9.258 21.84,-23.051 0,-4.878 -1.18,-9.097 -3.64,-12.738 5.71,4.461 8.71,10.512 9.1,18.211 -1.17,14.18 -8.47,21.867 -21.79,23.039" /><path
         id="path74"
         style="fill:#cccccc;fill-opacity:1;fill-rule:evenodd;stroke:none"
         d="m 1542.93,768.871 c -10.9,-0.43 -19.38,-4.851 -25.47,-13.402 5.66,4.922 12.34,7.5 20.04,7.929 19.41,-2.027 30.16,-13.359 32.19,-33.988 -0.43,-7.691 -2.66,-14.371 -6.68,-20.031 7.22,6.48 11.09,15.191 11.52,26.09 -1.64,20.269 -12.15,31.371 -31.6,33.402" /><path
         id="path76"
         style="fill:#cccccc;fill-opacity:1;fill-rule:evenodd;stroke:none"
         d="m 1303.75,764.02 c -8.05,-0.43 -14.14,-3.821 -18.2,-10.348 3.67,2.848 7.93,4.449 12.77,4.848 13.36,-1.61 20.63,-9.301 21.84,-23.051 0,-4.848 -1.21,-9.098 -3.64,-12.77 5.63,4.492 8.68,10.539 9.1,18.242 -1.24,14.18 -8.47,21.829 -21.87,23.079" /><path
         id="path78"
         style="fill:#cccccc;fill-opacity:1;fill-rule:evenodd;stroke:none"
         d="m 1352.3,907.27 c -5.62,-0.391 -9.68,-3.051 -12.1,-7.891 2.03,1.242 4.25,2.031 6.68,2.422 8.47,-0.781 13.12,-5.629 13.94,-14.571 -0.39,-2.39 -1.02,-4.652 -1.8,-6.679 4.03,2.847 6.25,6.871 6.68,12.148 -0.82,8.903 -5.27,13.75 -13.4,14.571" /><path
         id="path80"
         style="fill:#cccccc;fill-opacity:1;fill-rule:evenodd;stroke:none"
         d="m 1512.58,496.289 c -40.82,23.481 -81.72,21.441 -122.58,-6.059 -25.9,19.379 -56.25,26.059 -91.09,20 -64.34,-19.371 -93.29,-60.89 -86.84,-124.449 0.82,-3.633 1.88,-7.23 3.05,-10.902 -0.82,58.281 28.55,96.101 88,113.48 26.76,4.922 51.26,1.871 73.48,-9.097 -7.69,-7.231 -14.57,-15.352 -20.62,-24.262 -18.21,-29.141 -25.08,-58.871 -20.63,-89.219 4.45,-30.351 19.22,-54.261 44.3,-71.679 3.24,-1.993 6.48,-3.832 9.73,-5.43 -21.06,18.629 -33.21,42.109 -36.45,70.43 -2.81,28.277 4.3,56.058 21.25,83.168 6.52,9.289 13.55,17.609 21.25,24.839 3.24,2.852 6.48,5.7 9.73,8.551 37.61,27.07 76.52,31.719 116.52,13.949 -2.77,2.422 -5.82,4.653 -9.1,6.68" /><path
         id="path82"
         style="fill:#000000;fill-opacity:1;fill-rule:nonzero;stroke:none"
         d="m 964.609,1994.34 c 2.891,-4.38 7.192,-10.39 12.813,-17.97 5.629,-7.5 11.957,-14.38 19.058,-20.63 7.19,-6.17 15.04,-10.58 23.6,-13.28 8.63,-2.62 17.58,-0.9 26.87,5.16 12.58,8 19.38,22.38 20.32,43.12 0.93,20.71 -5.32,48.79 -18.75,84.22 l 30.31,19.53 c 16.01,-38.36 25.82,-70.47 29.37,-96.4 3.64,-25.94 3.6,-47.47 -0.15,-64.54 -3.67,-16.99 -9.77,-30.31 -18.28,-40 -8.44,-9.68 -17.04,-17.34 -25.79,-22.96 -17.42,-11.25 -34.33,-17.35 -50.78,-18.29 -16.36,-0.85 -32.11,1.96 -47.18,8.44 -15,6.56 -29.219,16.33 -42.661,29.38 -13.437,13 -25.429,27.69 -35.937,44.06 -3.242,4.88 -9.024,14.14 -17.344,27.81 -8.238,13.63 -17.148,28.17 -26.719,43.6 -9.609,15.39 -18.668,30 -27.187,43.75 -8.551,13.82 -14.531,23.51 -17.973,29.06 -11.359,17.5 -22.109,31.09 -32.179,40.78 -10,9.77 -19.61,16.33 -28.75,19.69 -9.18,3.43 -17.782,4.45 -25.79,3.12 -8.039,-1.37 -15.582,-4.33 -22.652,-8.9 -16.988,-10.86 -27.269,-27.04 -30.777,-48.6 -3.442,-21.56 1.398,-50.94 14.527,-88.12 l 168.75,-262.19 -82.027,-52.81 -339.692,527.81 c -18.75,-10.43 -38.668,-20.7 -59.687,-30.78 -20.942,-10 -43.281,-19.92 -67.031,-29.69 l 349.218,-542.66 -90.16,-58.12 -353.277,549.06 c -5.942,-2.93 -11.563,-5.94 -16.871,-9.06 -5.321,-3.05 -10.711,-6.33 -16.25,-9.84 -45.942,-29.5 -76.1721,-60.75 -90.7815,-93.75 -14.6914,-33.05 -7.9687,-71.41 20.1524,-115.16 21.0581,-32.73 41.3671,-54.96 60.9371,-66.72 19.61,-11.8 36.02,-19.61 49.219,-23.44 -13.629,-8.75 -27.656,-14.92 -42.027,-18.43 -14.461,-3.44 -29.071,-3.36 -43.75,0.31 -14.77,3.63 -29.4221,11.4 -43.9104,23.28 -14.5703,11.95 -29.1015,29.14 -43.5898,51.56 -14.3789,22.38 -23.91017,46.76 -28.60158,73.13 -4.67969,26.33 -2.500001,53.79 6.57031,82.34 9.05857,28.63 25.89067,57.81 50.46097,87.5 24.6093,29.77 59.3005,59.1 104.0705,87.97 21.871,13.94 41.789,25.35 59.679,34.22 17.821,8.94 34.969,16.91 51.411,23.9 16.371,6.96 32.339,14.11 47.968,21.41 15.621,7.38 31.911,16.56 48.911,27.5 22.89,14.77 41.91,27.85 57.031,39.22 15.187,11.33 26.597,22.54 34.219,33.59 3,-9.68 6.75,-19.49 11.25,-29.37 4.449,-9.92 9.679,-20.47 15.621,-31.72 6.019,-11.17 13.007,-23.44 20.937,-36.88 7.891,-13.35 17.5,-28.82 28.75,-46.4 l 77.652,-120.47 c -1.359,19.88 -0.742,37.07 1.879,51.56 2.692,14.57 7.032,26.88 12.969,36.88 5.942,10 12.383,18.2 19.371,24.68 7.071,6.45 14.141,11.96 21.25,16.57 24.571,15.82 47.391,23.9 68.442,24.22 21.019,0.39 40.039,-4.18 57.031,-13.75 16.949,-9.61 32.226,-22.19 45.777,-37.82 13.52,-15.62 25.352,-31.36 35.473,-47.18 6.328,-9.93 13.008,-20.9 20,-32.97 6.957,-12.11 14.137,-24.46 21.558,-37.03 7.5,-12.62 14.891,-25.28 22.192,-37.97 7.269,-12.62 14.258,-24.14 20.937,-34.53 z" /><path
         id="path84"
         style="fill:#000000;fill-opacity:1;fill-rule:nonzero;stroke:none"
         d="m 1351.05,2321.68 c 13.44,-43.44 6.76,-85.27 -20,-125.47 -26.67,-40.23 -70.62,-73.44 -131.87,-99.69 10.2,-24.06 20.94,-42.89 32.19,-56.4 11.25,-13.56 22.89,-23.4 35,-29.53 12.18,-6.18 24.84,-9.07 37.97,-8.75 13.12,0.39 26.17,2.57 39.21,6.56 19.89,6.13 37.58,15.31 53.13,27.5 15.62,12.26 26.76,28.59 33.44,48.9 1.95,-4.06 3.67,-8.08 5.15,-12.03 1.57,-3.86 2.85,-7.42 3.91,-10.62 4.37,-14.3 4.69,-28.13 0.94,-41.56 -3.67,-13.36 -10.28,-26.06 -19.85,-38.13 -9.49,-12.11 -21.52,-22.73 -36.09,-31.87 -14.49,-9.18 -30.39,-16.41 -47.66,-21.72 -21.17,-6.57 -43.51,-9.22 -67.03,-7.97 -23.44,1.33 -46.37,7.89 -68.75,19.69 -22.42,11.75 -43.08,29.68 -62.03,53.75 -18.94,24.06 -34.45,55.66 -46.56,94.84 -8.01,26.02 -13.67,55.16 -17.03,87.34 -3.44,32.27 -2.11,63.64 3.9,94.07 5.94,30.39 17.58,57.73 34.85,82.03 17.26,24.37 42.69,41.76 76.25,52.18 15.5,4.69 31.09,7.58 46.72,8.75 15.62,1.14 30.66,-1.01 45.15,-6.4 14.57,-5.43 27.81,-14.81 39.69,-28.13 11.95,-13.36 21.76,-32.46 29.37,-57.34 z m -163.9,-189.06 c 41.87,20.39 71.95,46.64 90.31,78.75 18.32,32.18 22.07,65.97 11.25,101.4 -7.3,23.52 -16.56,39.14 -27.81,46.88 -11.17,7.81 -24.22,9.41 -39.22,4.84 -16.06,-4.92 -28.24,-15.47 -36.56,-31.72 -8.36,-16.17 -13.52,-35.23 -15.47,-57.18 -1.99,-22 -1.37,-45.59 1.87,-70.79 3.32,-25.11 8.52,-49.18 15.63,-72.18 z" /><path
         id="path86"
         style="fill:#000000;fill-opacity:1;fill-rule:nonzero;stroke:none"
         d="m 2101.29,2635.12 c 1.01,-26.06 -3.56,-46.41 -13.75,-61.1 -10.24,-14.61 -24.14,-22.18 -41.72,-22.81 -9.06,-0.43 -16.72,0.86 -22.97,3.91 -6.25,3 -12.81,7.97 -19.69,14.84 8.95,6.76 15.63,16.41 20,28.91 4.38,12.5 6.29,25.54 5.79,39.22 -0.43,11.01 -2.66,22.03 -6.72,32.96 -3.99,10.94 -10,20.63 -18.13,29.07 -8.12,8.51 -18.12,15.35 -30,20.47 -11.87,5.07 -25.94,7.34 -42.19,6.71 -16.87,-0.62 -31.87,-4.33 -45,-11.09 -13.04,-6.68 -23.71,-15.55 -32.03,-26.56 -8.36,-11.06 -14.53,-23.83 -18.59,-38.28 -3.99,-14.49 -5.63,-29.85 -5,-46.1 1.13,-31.17 9.69,-55.86 25.62,-74.06 16.02,-18.24 35.67,-33.44 58.91,-45.62 23.2,-12.11 48.48,-23.44 75.78,-34.07 27.38,-10.62 52.81,-24.18 76.25,-40.62 23.44,-16.37 43.28,-37.42 59.53,-63.13 16.25,-25.62 25.2,-60.23 26.88,-103.75 1.44,-39.06 -3.83,-72.61 -15.78,-100.62 -12,-28.05 -28.25,-50.9 -48.75,-68.6 -20.43,-17.73 -44.14,-31.01 -71.1,-39.84 -26.87,-8.75 -54.61,-13.67 -83.12,-14.84 -25.43,-0.94 -50.59,1.05 -75.47,5.93 -24.92,4.89 -47.34,13.33 -67.34,25.32 -19.93,11.95 -36.25,27.58 -49.07,46.87 -12.73,19.38 -19.61,42.97 -20.62,70.78 -0.63,16.25 0.97,32.89 4.84,50 3.95,17.07 10.04,32.58 18.28,46.57 8.32,14.06 18.95,25.66 31.88,34.84 12.89,9.26 28.12,14.26 45.62,15 14.26,0.51 26.6,-2.97 37.03,-10.47 10.39,-7.42 19.93,-21.64 28.6,-42.66 -15.63,-1.36 -28.4,-5.15 -38.28,-11.4 -9.93,-6.17 -17.62,-13.56 -23.13,-22.19 -5.55,-8.67 -9.3,-17.93 -11.25,-27.81 -1.87,-9.81 -2.62,-18.91 -2.19,-27.35 0.63,-17.61 5.04,-32.73 13.29,-45.31 8.32,-12.62 18.67,-23.08 31.09,-31.4 12.38,-8.36 25.62,-14.38 39.69,-18.13 14.14,-3.67 27.73,-5.23 40.78,-4.69 29.88,1.02 54.1,13.28 72.65,36.72 18.52,23.52 27.04,56.76 25.47,99.69 -1.48,36.33 -9.53,64.77 -24.22,85.31 -14.68,20.51 -33.04,37.5 -55,50.94 -21.99,13.52 -45.39,25 -70.15,34.37 -24.81,9.46 -48.13,20.98 -70,34.54 -21.88,13.51 -40.28,31.17 -55.16,52.96 -14.92,21.88 -23.05,51.65 -24.37,89.38 -1.25,32.38 3.16,61.13 13.28,86.25 10.19,25.08 23.9,46.25 41.09,63.44 17.19,17.26 37.42,30.47 60.78,39.53 23.44,9.06 47.82,14.06 73.13,15 11.01,0.39 26.13,-0.31 45.31,-2.19 19.26,-1.87 38.32,-7.03 57.19,-15.47 18.83,-8.36 35.23,-21.21 49.22,-38.59 14.06,-17.31 21.64,-40.9 22.81,-70.78 z" /><path
         id="path88"
         style="fill:#000000;fill-opacity:1;fill-rule:nonzero;stroke:none"
         d="m 2405.62,2501.6 -59.84,-325.94 c -5.86,-31.36 -4.53,-54.61 3.91,-69.68 8.43,-15 20.97,-24.03 37.65,-27.03 8.83,-1.68 18.17,-1.02 27.97,2.03 9.89,3.12 19.14,8.47 27.81,16.09 8.76,7.7 16.57,17.5 23.44,29.38 6.88,11.95 11.8,26.32 14.85,43.12 l 56.56,307.66 95.62,-17.5 -59.84,-325.94 c -2.11,-10.94 -3.44,-21.68 -4.06,-32.19 -0.55,-10.43 0.54,-20 3.28,-28.75 2.69,-8.75 7.23,-16.37 13.59,-22.81 6.45,-6.45 15.39,-10.7 26.88,-12.81 19.88,-3.64 37.85,0.47 53.9,12.34 16.14,11.88 30.63,28.52 43.44,50 12.81,21.45 23.75,46.02 32.81,73.75 9.14,27.81 16.29,55.7 21.41,83.75 3.32,17.89 5.94,35.7 7.81,53.44 1.96,17.81 2.7,34.06 2.19,48.75 -3.87,-2.62 -8.44,-3.91 -13.75,-3.91 -5.23,0 -9.37,0.24 -12.5,0.78 -15.43,2.82 -26.02,10.35 -31.72,22.66 -5.74,12.26 -7.5,24.53 -5.31,36.72 2.38,12.81 8.63,23.36 18.75,31.72 10.19,8.32 23.28,11.01 39.22,8.12 10.82,-1.99 20.62,-7.11 29.37,-15.31 8.75,-8.24 15.51,-19.92 20.32,-35 4.88,-15 7.34,-34.14 7.34,-57.34 0.08,-23.13 -2.89,-51.02 -8.91,-83.6 -6.68,-36.37 -16.64,-73.36 -29.84,-110.94 -13.13,-37.5 -29.69,-70.93 -49.69,-100.31 -19.92,-29.37 -42.97,-52.34 -69.22,-68.9 -26.17,-16.65 -55.86,-21.92 -89.06,-15.79 -24.92,4.61 -47.42,15.32 -67.5,32.19 -20,16.8 -33.2,38.36 -39.53,64.69 -17.62,-23.83 -36.64,-40 -57.03,-48.44 -20.32,-8.44 -40.39,-10.82 -60.16,-7.19 -18.55,3.44 -35.7,9.22 -51.4,17.35 -15.75,8.04 -28.6,19.06 -38.6,33.12 -9.92,14.07 -16.64,31.14 -20.16,51.25 -3.55,20.2 -2.81,44.07 2.19,71.57 l 61.88,336.56 z" /><path
         id="path90"
         style="fill:#000000;fill-opacity:1;fill-rule:nonzero;stroke:none"
         d="m 3233.36,2135.62 c -16.88,-42.1 -48.36,-70.42 -94.38,-85 -45.93,-14.6 -101.05,-12.89 -165.31,5.16 -7.19,-25.23 -10.62,-46.64 -10.31,-64.22 0.31,-17.61 3.2,-32.61 8.75,-45 5.51,-12.3 13.48,-22.38 23.91,-30.31 10.5,-8.01 22.1,-14.57 34.84,-19.69 29.06,-11.56 59.26,-14.84 90.62,-9.84 31.33,5 61.96,22.15 91.88,51.4 l 28.91,-11.56 c -16.88,-19.14 -36.33,-36.09 -58.29,-50.78 -21.87,-14.69 -45.23,-25.98 -70,-33.9 -24.8,-8.01 -49.92,-12.19 -75.31,-12.5 -25.43,-0.32 -49.61,4.14 -72.5,13.28 -21.05,8.43 -39.96,20.15 -56.72,35.15 -16.68,15 -29.22,33.83 -37.65,56.41 -8.44,22.58 -12.11,49.06 -10.94,79.37 1.13,30.32 9.41,64.77 24.84,103.44 10.08,25.31 23.95,51.6 41.57,78.91 17.57,27.26 38.2,50.86 61.87,70.78 23.75,20 50,33.98 78.75,42.03 28.75,8.13 59.41,5.7 92.03,-7.19 15.08,-6.05 29.06,-13.55 41.88,-22.5 12.89,-8.98 23.32,-20.15 31.25,-33.59 8,-13.36 12.42,-28.91 13.28,-46.72 0.94,-17.81 -3.4,-38.87 -12.97,-63.13 z m -246.56,-44.21 c 45.5,-10.43 85.47,-8.91 119.84,4.53 34.45,13.51 58.59,37.54 72.34,72.03 9.14,22.89 11.8,40.86 7.97,53.91 -3.86,13.12 -13.08,22.57 -27.65,28.43 -15.63,6.25 -31.72,5.67 -48.28,-1.72 -16.57,-7.42 -32.58,-19.06 -47.97,-35 -15.43,-15.86 -29.77,-34.61 -42.97,-56.25 -13.24,-21.68 -24.34,-43.67 -33.28,-65.93 z" /><path
         id="path92"
         style="fill:#000000;fill-opacity:1;fill-rule:nonzero;stroke:none"
         d="m 3591.8,1933.48 c -22.82,-39.3 -58.05,-62.78 -105.63,-70.47 -47.62,-7.74 -101.87,1.95 -162.81,29.06 -10.74,-23.75 -17.27,-44.37 -19.53,-61.87 -2.31,-17.5 -1.56,-32.78 2.19,-45.79 3.75,-13 10.15,-24.21 19.21,-33.59 9.15,-9.45 19.61,-17.66 31.41,-24.53 27.07,-15.63 56.48,-23.2 88.28,-22.81 31.76,0.31 64.57,12.77 98.44,37.34 l 26.87,-15.62 c -19.37,-16.57 -41.01,-30.47 -64.84,-41.72 -23.87,-11.33 -48.67,-19.1 -74.37,-23.28 -25.75,-4.26 -51.22,-4.73 -76.41,-1.41 -25.12,3.36 -48.36,11.21 -69.69,23.59 -19.69,11.37 -36.72,25.74 -51.09,43.13 -14.3,17.3 -23.99,37.77 -29.06,61.4 -5.12,23.52 -4.85,50.2 0.78,80 5.7,29.77 19.06,62.7 40,98.75 13.63,23.64 31.09,47.66 52.34,72.04 21.33,24.37 45.2,44.68 71.56,60.93 26.33,16.25 54.3,26.25 83.91,30 29.69,3.83 59.69,-3.04 90,-20.62 14.06,-8.13 26.8,-17.58 38.28,-28.28 11.45,-10.63 20.16,-23.13 26.09,-37.5 5.94,-14.38 8.01,-30.47 6.25,-48.28 -1.68,-17.82 -9.06,-37.97 -22.18,-60.47 z m -250.16,-7.97 c 43.44,-16.99 83.16,-21.33 119.22,-12.97 36.02,8.44 63.36,28.63 82.03,60.62 12.38,21.33 17.58,38.79 15.63,52.35 -1.88,13.63 -9.54,24.37 -22.97,32.19 -14.69,8.43 -30.78,10.15 -48.28,5.15 -17.43,-4.92 -34.93,-14.06 -52.5,-27.5 -17.62,-13.44 -34.54,-29.96 -50.79,-49.53 -16.17,-19.49 -30.27,-39.61 -42.34,-60.31 z" /><path
         id="path94"
         style="fill:#000000;fill-opacity:1;fill-rule:nonzero;stroke:none"
         d="m 3858.67,1930.55 -47.34,-58.44 c 17.69,2.27 35.55,1.33 53.59,-2.81 18.01,-4.18 35.55,-13.25 52.66,-27.19 17.58,-14.3 30.86,-31.37 39.84,-51.25 9.06,-19.81 13.01,-41.99 11.88,-66.56 -1.18,-24.61 -8.05,-51.33 -20.63,-80.16 -12.5,-28.75 -31.87,-59.26 -58.12,-91.56 -51.25,-63.01 -102.82,-102.27 -154.69,-117.81 -51.88,-15.51 -97.5,-7.27 -136.88,24.68 -16.68,13.56 -28.39,28.28 -35.15,44.22 -6.8,15.94 -9.96,33.4 -9.53,52.35 l -164.22,-201.88 -91.72,42.97 483.91,595.47 z m -7.65,-115.94 c -11.06,9.06 -23.56,13.98 -37.5,14.84 -13.87,0.82 -28.56,-2.11 -44.07,-8.75 l -184.37,-226.87 c -0.43,-14.69 2.11,-27.66 7.65,-38.91 5.63,-11.25 12.7,-20.35 21.25,-27.34 12.58,-10.31 26.96,-15.31 43.13,-15 16.13,0.23 33.28,4.53 51.41,12.97 18.12,8.36 36.48,20.43 55.15,36.25 18.63,15.74 36.56,34.18 53.75,55.31 21.25,26.25 36.56,50 45.94,71.25 9.45,21.25 14.61,40.08 15.47,56.56 0.82,16.56 -1.56,30.67 -7.19,42.35 -5.62,11.64 -12.5,20.78 -20.62,27.34 z" /></g></g></svg>